HIERARCHY
ROOT newVegas:Hips
{
	OFFSET 0.000000 96.479958 0.000000
	CHANNELS 6 Xposition Yposition Zposition Xrotation Yrotation Zrotation
	JOINT newVegas:Pelvis
	{
		OFFSET 0.000000 0.000000 0.000000
		CHANNELS 3 Xrotation Yrotation Zrotation
		JOINT newVegas:LeftUpLeg
		{
			OFFSET 18.735201 -5.666702 -4.541200
			CHANNELS 3 Xrotation Yrotation Zrotation
			JOINT newVegas:LeftLeg
			{
				OFFSET -0.021200 -31.938179 0.493100
				CHANNELS 3 Xrotation Yrotation Zrotation
				JOINT newVegas:LeftFoot
				{
					OFFSET 0.021200 -31.938179 -4.336299
					CHANNELS 3 Xrotation Yrotation Zrotation
					JOINT newVegas:LeftToeBase
					{
						OFFSET 0.943001 -26.722000 15.023500
						CHANNELS 3 Xrotation Yrotation Zrotation
						End Site
						{
							OFFSET 0.000000 30.670183 0.000000
						}
					}
				}
				JOINT newVegas:Left_PantLeg
				{
					OFFSET 0.663870 -9.044666 -1.108900
					CHANNELS 3 Xrotation Yrotation Zrotation
					End Site
					{
						OFFSET 1.415995 20.635357 0.000000
					}
				}
			}
		}
		JOINT newVegas:RightUpLeg
		{
			OFFSET -18.735201 -5.666702 -4.541200
			CHANNELS 3 Xrotation Yrotation Zrotation
			JOINT newVegas:RightLeg
			{
				OFFSET 0.018946 -31.938133 0.493100
				CHANNELS 3 Xrotation Yrotation Zrotation
				JOINT newVegas:RightFoot
				{
					OFFSET -0.018946 -31.938126 -4.336299
					CHANNELS 3 Xrotation Yrotation Zrotation
					JOINT newVegas:RightToeBase
					{
						OFFSET -0.943001 -26.722004 15.023500
						CHANNELS 3 Xrotation Yrotation Zrotation
						End Site
						{
							OFFSET 0.000000 30.670187 0.000000
						}
					}
				}
				JOINT newVegas:Right_PantLeg
				{
					OFFSET -0.661674 -9.044716 -1.108900
					CHANNELS 3 Xrotation Yrotation Zrotation
					End Site
					{
						OFFSET -1.415958 20.635269 0.000000
					}
				}
			}
		}
	}
	JOINT newVegas:Spine
	{
		OFFSET 0.000000 10.199997 -0.299500
		CHANNELS 3 Xrotation Yrotation Zrotation
		JOINT newVegas:Spine1
		{
			OFFSET 0.000000 11.900002 -1.516600
			CHANNELS 3 Xrotation Yrotation Zrotation
			JOINT newVegas:Spine2
			{
				OFFSET 0.000000 13.600006 -2.842500
				CHANNELS 3 Xrotation Yrotation Zrotation
				JOINT newVegas:Neck
				{
					OFFSET 0.000000 9.624100 -2.890100
					CHANNELS 3 Xrotation Yrotation Zrotation
					JOINT newVegas:Head
					{
						OFFSET 0.000000 14.068802 -1.351900
						CHANNELS 3 Xrotation Yrotation Zrotation
						JOINT newVegas:Hair_Back
						{
							OFFSET 0.000000 3.231903 -17.524799
							CHANNELS 3 Xrotation Yrotation Zrotation
							End Site
							{
								OFFSET 0.000000 19.849884 0.000000
							}
						}
						JOINT newVegas:Hair_Front
						{
							OFFSET 0.000000 31.260406 4.573800
							CHANNELS 3 Xrotation Yrotation Zrotation
							JOINT newVegas:Hair_Front1
							{
								OFFSET 0.000000 2.284103 11.993300
								CHANNELS 3 Xrotation Yrotation Zrotation
								JOINT newVegas:Hair_Front2
								{
									OFFSET 0.000000 2.284103 11.993300
									CHANNELS 3 Xrotation Yrotation Zrotation
									End Site
									{
										OFFSET 0.000000 12.208862 0.000000
									}
								}
							}
						}
						JOINT newVegas:Jowel
						{
							OFFSET 0.000000 -7.458206 6.864100
							CHANNELS 3 Xrotation Yrotation Zrotation
							End Site
							{
								OFFSET 0.000000 19.849884 0.000000
							}
						}
					}
				}
				JOINT newVegas:LeftShoulder
				{
					OFFSET 15.263000 10.923401 -0.547700
					CHANNELS 3 Xrotation Yrotation Zrotation
					JOINT newVegas:LeftArm
					{
						OFFSET 25.438599 -2.830597 -13.032500
						CHANNELS 3 Xrotation Yrotation Zrotation
						JOINT newVegas:LeftForeArm
						{
							OFFSET 29.960503 0.000000 0.000000
							CHANNELS 3 Xrotation Yrotation Zrotation
							JOINT newVegas:LeftHand
							{
								OFFSET 27.849251 0.000000 0.000000
								CHANNELS 3 Xrotation Yrotation Zrotation
								JOINT newVegas:LeftHandThumb1
								{
									OFFSET 4.487587 -3.305161 6.305391
									CHANNELS 3 Xrotation Yrotation Zrotation
									JOINT newVegas:LeftHandThumb2
									{
										OFFSET 5.480453 -3.164139 3.164143
										CHANNELS 3 Xrotation Yrotation Zrotation
										JOINT newVegas:LeftHandThumb3
										{
											OFFSET 5.159721 -2.978973 2.978967
											CHANNELS 3 Xrotation Yrotation Zrotation
											End Site
											{
												OFFSET 2.494507 5.926697 1.738678
											}
										}
									}
								}
								JOINT newVegas:LeftHandIndex1
								{
									OFFSET 18.578728 -0.527832 5.208049
									CHANNELS 3 Xrotation Yrotation Zrotation
									JOINT newVegas:LeftHandIndex2
									{
										OFFSET 3.192009 0.000000 0.000000
										CHANNELS 3 Xrotation Yrotation Zrotation
										JOINT newVegas:LeftHandIndex3
										{
											OFFSET 3.835129 0.000000 0.000000
											CHANNELS 3 Xrotation Yrotation Zrotation
											End Site
											{
												OFFSET -0.034599 3.816971 0.371180
											}
										}
									}
								}
								JOINT newVegas:LeftHandMiddle1
								{
									OFFSET 18.476105 0.000000 0.000000
									CHANNELS 3 Xrotation Yrotation Zrotation
									JOINT newVegas:LeftHandMiddle2
									{
										OFFSET 3.324875 0.000000 0.000000
										CHANNELS 3 Xrotation Yrotation Zrotation
										JOINT newVegas:LeftHandMiddle3
										{
											OFFSET 4.596550 0.000000 0.000000
											CHANNELS 3 Xrotation Yrotation Zrotation
											End Site
											{
												OFFSET 0.057701 4.578827 0.399218
											}
										}
									}
								}
								JOINT newVegas:LeftHandRing1
								{
									OFFSET 17.732719 0.121887 -4.201567
									CHANNELS 3 Xrotation Yrotation Zrotation
									JOINT newVegas:LeftHandRing2
									{
										OFFSET 2.733170 0.000000 0.000000
										CHANNELS 3 Xrotation Yrotation Zrotation
										JOINT newVegas:LeftHandRing3
										{
											OFFSET 3.178268 0.000000 0.000000
											CHANNELS 3 Xrotation Yrotation Zrotation
											End Site
											{
												OFFSET 0.119102 3.170624 0.185394
											}
										}
									}
								}
								JOINT newVegas:LeftHandPinky1
								{
									OFFSET 15.989624 -0.606689 -7.535461
									CHANNELS 3 Xrotation Yrotation Zrotation
									JOINT newVegas:LeftHandPinky2
									{
										OFFSET 2.538986 0.000000 0.000000
										CHANNELS 3 Xrotation Yrotation Zrotation
										JOINT newVegas:LeftHandPinky3
										{
											OFFSET 2.593102 0.000000 0.000000
											CHANNELS 3 Xrotation Yrotation Zrotation
											End Site
											{
												OFFSET -0.150902 2.584198 0.152708
											}
										}
									}
								}
							}
							JOINT newVegas:Left_Sleeve
							{
								OFFSET 0.267448 -0.649796 0.577675
								CHANNELS 3 Xrotation Yrotation Zrotation
								End Site
								{
									OFFSET 0.000000 15.991241 0.000000
								}
							}
							JOINT newVegas:Left_CapeC
							{
								OFFSET 15.715958 -8.608795 -6.935905
								CHANNELS 3 Xrotation Yrotation Zrotation
								JOINT newVegas:Left_CapeC1
								{
									OFFSET 0.000000 -8.688499 0.000000
									CHANNELS 3 Xrotation Yrotation Zrotation
									End Site
									{
										OFFSET 0.000000 8.688499 0.000000
									}
								}
							}
						}
						JOINT newVegas:Left_CapeB
						{
							OFFSET 26.118385 -8.608795 -7.079235
							CHANNELS 3 Xrotation Yrotation Zrotation
							JOINT newVegas:Left_CapeB1
							{
								OFFSET 0.000000 -8.688499 0.000000
								CHANNELS 3 Xrotation Yrotation Zrotation
								End Site
								{
									OFFSET 0.000000 8.688499 0.000000
								}
							}
						}
						JOINT newVegas:Left_CapeA
						{
							OFFSET 5.115639 -8.608795 -10.395809
							CHANNELS 3 Xrotation Yrotation Zrotation
							JOINT newVegas:Left_CapeA1
							{
								OFFSET 0.000000 -8.688499 0.000000
								CHANNELS 3 Xrotation Yrotation Zrotation
								End Site
								{
									OFFSET 0.000000 8.688499 0.000000
								}
							}
						}
					}
				}
				JOINT newVegas:RightShoulder
				{
					OFFSET -15.263000 10.923401 -0.547700
					CHANNELS 3 Xrotation Yrotation Zrotation
					JOINT newVegas:RightArm
					{
						OFFSET -25.438599 -2.830597 -13.032500
						CHANNELS 3 Xrotation Yrotation Zrotation
						JOINT newVegas:RightForeArm
						{
							OFFSET -29.960503 0.000000 0.000000
							CHANNELS 3 Xrotation Yrotation Zrotation
							JOINT newVegas:RightHand
							{
								OFFSET -27.849251 0.000000 0.000000
								CHANNELS 3 Xrotation Yrotation Zrotation
								JOINT newVegas:RightHandThumb1
								{
									OFFSET -4.487587 -3.305161 6.305391
									CHANNELS 3 Xrotation Yrotation Zrotation
									JOINT newVegas:RightHandThumb2
									{
										OFFSET -5.480453 -3.164139 3.164143
										CHANNELS 3 Xrotation Yrotation Zrotation
										JOINT newVegas:RightHandThumb3
										{
											OFFSET -5.159721 -2.978973 2.978967
											CHANNELS 3 Xrotation Yrotation Zrotation
											End Site
											{
												OFFSET -2.494507 5.926697 1.738678
											}
										}
									}
								}
								JOINT newVegas:RightHandIndex1
								{
									OFFSET -18.578728 -0.527832 5.208049
									CHANNELS 3 Xrotation Yrotation Zrotation
									JOINT newVegas:RightHandIndex2
									{
										OFFSET -3.192009 0.000000 0.000000
										CHANNELS 3 Xrotation Yrotation Zrotation
										JOINT newVegas:RightHandIndex3
										{
											OFFSET -3.835129 0.000000 0.000000
											CHANNELS 3 Xrotation Yrotation Zrotation
											End Site
											{
												OFFSET 0.034599 3.816971 0.371180
											}
										}
									}
								}
								JOINT newVegas:RightHandMiddle1
								{
									OFFSET -18.476105 0.000000 0.000000
									CHANNELS 3 Xrotation Yrotation Zrotation
									JOINT newVegas:RightHandMiddle2
									{
										OFFSET -3.324875 0.000000 0.000000
										CHANNELS 3 Xrotation Yrotation Zrotation
										JOINT newVegas:RightHandMiddle3
										{
											OFFSET -4.596550 0.000000 0.000000
											CHANNELS 3 Xrotation Yrotation Zrotation
											End Site
											{
												OFFSET -0.057701 4.578827 0.399218
											}
										}
									}
								}
								JOINT newVegas:RightHandRing1
								{
									OFFSET -17.732719 0.121887 -4.201567
									CHANNELS 3 Xrotation Yrotation Zrotation
									JOINT newVegas:RightHandRing2
									{
										OFFSET -2.733170 0.000000 0.000000
										CHANNELS 3 Xrotation Yrotation Zrotation
										JOINT newVegas:RightHandRing3
										{
											OFFSET -3.178268 0.000000 0.000000
											CHANNELS 3 Xrotation Yrotation Zrotation
											End Site
											{
												OFFSET -0.119102 3.170624 0.185394
											}
										}
									}
								}
								JOINT newVegas:RightHandPinky1
								{
									OFFSET -15.989624 -0.606689 -7.535461
									CHANNELS 3 Xrotation Yrotation Zrotation
									JOINT newVegas:RightHandPinky2
									{
										OFFSET -2.538986 0.000000 0.000000
										CHANNELS 3 Xrotation Yrotation Zrotation
										JOINT newVegas:RightHandPinky3
										{
											OFFSET -2.593102 0.000000 0.000000
											CHANNELS 3 Xrotation Yrotation Zrotation
											End Site
											{
												OFFSET 0.150902 2.584198 0.152708
											}
										}
									}
								}
							}
							JOINT newVegas:Right_CapeC
							{
								OFFSET -15.715958 -8.608795 -6.935905
								CHANNELS 3 Xrotation Yrotation Zrotation
								JOINT newVegas:Right_CapeC1
								{
									OFFSET 0.000000 -8.688499 0.000000
									CHANNELS 3 Xrotation Yrotation Zrotation
									End Site
									{
										OFFSET 0.000000 8.688499 0.000000
									}
								}
							}
							JOINT newVegas:Right_Sleeve
							{
								OFFSET -0.267448 -0.649994 0.577675
								CHANNELS 3 Xrotation Yrotation Zrotation
								End Site
								{
									OFFSET 0.000000 15.991302 0.000000
								}
							}
						}
						JOINT newVegas:Right_CapeA
						{
							OFFSET -5.115540 -8.608795 -10.395824
							CHANNELS 3 Xrotation Yrotation Zrotation
							JOINT newVegas:Right_CapeA1
							{
								OFFSET 0.000000 -8.688499 0.000000
								CHANNELS 3 Xrotation Yrotation Zrotation
								End Site
								{
									OFFSET 0.000000 8.688499 0.000000
								}
							}
						}
						JOINT newVegas:Right_CapeB
						{
							OFFSET -26.118187 -8.608795 -7.079266
							CHANNELS 3 Xrotation Yrotation Zrotation
							JOINT newVegas:Right_CapeB1
							{
								OFFSET 0.000000 -8.688499 0.000000
								CHANNELS 3 Xrotation Yrotation Zrotation
								End Site
								{
									OFFSET 0.000000 8.688499 0.000000
								}
							}
						}
					}
				}
				JOINT newVegas:Left_Collar
				{
					OFFSET 18.625099 8.655502 8.828100
					CHANNELS 3 Xrotation Yrotation Zrotation
					JOINT newVegas:Left_Collar1
					{
						OFFSET 14.783401 10.540405 -1.259500
						CHANNELS 3 Xrotation Yrotation Zrotation
						End Site
						{
							OFFSET 0.000000 18.199875 0.000000
						}
					}
				}
				JOINT newVegas:Collar_Back
				{
					OFFSET 0.000000 15.630707 -20.132601
					CHANNELS 3 Xrotation Yrotation Zrotation
					End Site
					{
						OFFSET 0.000000 22.523010 0.000000
					}
				}
				JOINT newVegas:Left_Peck
				{
					OFFSET 17.239599 -5.132599 25.482599
					CHANNELS 3 Xrotation Yrotation Zrotation
					End Site
					{
						OFFSET 0.000000 22.523010 0.000000
					}
				}
				JOINT newVegas:Right_Peck
				{
					OFFSET -17.239599 -5.132202 25.482599
					CHANNELS 3 Xrotation Yrotation Zrotation
					End Site
					{
						OFFSET 0.000000 22.523010 0.000000
					}
				}
				JOINT newVegas:Right_Collar
				{
					OFFSET -18.625099 8.655792 8.828100
					CHANNELS 3 Xrotation Yrotation Zrotation
					JOINT newVegas:Right_Collar1
					{
						OFFSET -14.783401 10.539993 -1.259500
						CHANNELS 3 Xrotation Yrotation Zrotation
						End Site
						{
							OFFSET 0.000000 18.199631 0.000000
						}
					}
				}
			}
		}
		JOINT newVegas:Belly
		{
			OFFSET 0.000000 -6.540398 9.014299
			CHANNELS 3 Xrotation Yrotation Zrotation
			End Site
			{
				OFFSET 0.000000 11.566666 0.000000
			}
		}
	}
	JOINT newVegas:ElvisFacialAnim_Joint
	{
		OFFSET 1.000000 -95.330101 -8.825800
		CHANNELS 3 Xrotation Yrotation Zrotation
		End Site
		{
			OFFSET 0.000000 35.315800 0.000000
		}
	}
}
MOTION
Frames: 4
Frame Time: 0.016667
0.987777 56.587227 -3.691641 0.487029 -175.258652 -8.458719 0.000000 0.000000 -0.000000 -90.638495 -24.206949 14.508334 124.575055 1.078228 2.292891 -27.738689 5.609834 -17.513959 0.000000 0.000002 0.000000 0.000000 0.000000 -0.000001 -59.091593 17.626936 -29.344187 109.644542 6.005716 -0.094155 -28.974865 -10.362103 30.766918 -0.000000 -0.000000 0.000000 0.000002 0.000002 -0.000000 4.072242 3.112980 -2.651222 8.251961 6.771406 -4.731506 8.251961 6.771408 -4.731519 -0.115459 5.676528 1.235488 -0.115451 5.676539 1.235484 0.000002 0.000003 -0.000001 -0.115383 5.676529 1.235486 -0.115464 5.676550 1.235483 -0.000001 0.000001 -0.000000 0.000002 0.000003 -0.000002 1.033490 -15.235096 -11.647767 3.042448 -0.761204 -32.016368 40.133567 -33.388184 -1.908159 12.866376 10.638191 2.322274 -9.419883 -10.451150 8.422282 2.321124 6.714515 2.170912 0.000001 0.000001 -0.000003 -1.239079 -9.024531 -4.969423 -0.126834 0.207672 -21.714394 -0.000003 0.000000 -0.000001 1.309895 -1.012400 -8.080148 -0.178458 -0.773443 -14.430110 -0.000000 -0.000001 0.000001 -0.365414 2.944781 -4.498887 -0.505472 -2.597488 -30.199504 0.000000 -0.000003 0.000004 0.029756 5.968255 0.715907 -0.699234 -5.770497 -39.699300 -0.000002 -0.000002 0.000004 0.000001 0.000000 -0.000000 0.000001 0.000000 -0.000000 -0.000000 0.000000 -0.000000 0.000000 -0.000003 -0.000001 0.000000 -0.000003 -0.000002 0.000000 -0.000003 -0.000001 0.000001 -0.000002 -0.000001 3.185201 -18.297165 12.806541 12.807453 -13.875010 59.330520 29.940817 40.956895 -3.738876 19.089486 -1.945258 12.311405 -7.852774 4.769969 -9.664453 -0.642370 -0.093878 -1.289326 -0.000002 0.000000 0.000001 -1.233005 0.595984 8.695213 0.120526 -1.119637 16.859794 0.000003 -0.000000 0.000000 -1.142336 -1.774141 0.545312 -0.357883 1.142266 22.116001 0.000002 0.000003 -0.000001 1.909923 -0.146220 -2.803265 -0.619906 3.110113 28.344756 -0.000003 0.000003 -0.000002 4.769419 -2.279008 -7.778120 -1.320414 7.677274 37.620190 0.000000 0.000000 -0.000004 0.000001 -0.000000 -0.000000 0.000003 -0.000000 0.000002 0.000001 -0.000000 -0.000000 -0.000001 -0.000003 -0.000002 -0.000002 -0.000002 -0.000002 -0.000001 -0.000003 -0.000002 -0.000002 -0.000002 -0.000000 -0.000000 0.000000 0.000002 -0.000000 0.000000 0.000002 -0.000000 0.000000 0.000002 -0.000000 0.000000 0.000002 -0.000000 0.000000 0.000002 -0.000000 0.000000 0.000002 -0.000000 0.000000 0.000002 -0.000000 -0.000000 0.000001 0.000000 0.000000 -0.000000 
0.984040 56.586334 -3.698915 0.464406 -175.262395 -8.460658 0.000000 0.000000 -0.000001 -90.655093 -24.203544 14.504202 124.578143 1.079003 2.292882 -27.749284 5.612230 -17.513020 -0.000000 -0.000002 -0.000000 -0.000001 0.000003 0.000000 -59.112965 17.620037 -29.357246 109.647370 6.001068 -0.094777 -28.979297 -10.350866 30.743248 0.000000 0.000002 0.000000 -0.000002 0.000000 -0.000000 4.066990 3.110535 -2.650585 8.241341 6.766910 -4.730118 8.241340 6.766909 -4.730119 -0.117924 5.682663 1.222625 -0.117925 5.682665 1.222614 0.000001 0.000000 -0.000000 -0.117925 5.682680 1.222619 -0.117937 5.682621 1.222631 -0.000001 0.000001 -0.000000 0.000001 0.000000 -0.000000 1.032236 -15.314481 -11.643154 3.086116 -0.688670 -32.029448 40.144563 -33.392645 -1.914889 12.845077 10.616993 2.348276 -9.419886 -10.451142 8.422293 2.321123 6.714513 2.170909 -0.000001 0.000004 -0.000001 -1.239126 -9.024852 -4.949880 -0.126832 0.207671 -21.714392 0.000000 -0.000000 -0.000002 1.310106 -1.010957 -8.062256 -0.178460 -0.773444 -14.430107 0.000000 -0.000000 -0.000001 -0.365313 2.945774 -4.487025 -0.505472 -2.597489 -30.199494 -0.000008 -0.000001 0.000004 0.029744 5.969878 0.729931 -0.699236 -5.770494 -39.699300 0.000001 -0.000003 0.000001 0.000000 0.000000 -0.000000 0.000000 0.000000 -0.000000 -0.000001 0.000000 -0.000000 0.000000 -0.000002 -0.000002 0.000000 -0.000002 -0.000003 0.000000 -0.000002 -0.000002 -0.000000 -0.000002 -0.000002 3.178405 -18.230238 12.777571 12.845292 -13.905127 59.356680 29.929377 40.938699 -3.736768 19.065799 -1.958744 12.297311 -7.852777 4.769971 -9.664450 -0.642367 -0.093878 -1.289328 -0.000004 -0.000002 -0.000001 -1.233022 0.595988 8.695213 0.120531 -1.119633 16.859794 -0.000005 0.000002 0.000001 -1.142363 -1.774144 0.545297 -0.357890 1.142267 22.115999 -0.000001 0.000001 -0.000001 1.909922 -0.146220 -2.803236 -0.619904 3.110111 28.344752 -0.000002 0.000004 -0.000005 4.769414 -2.279013 -7.778125 -1.320414 7.677275 37.620187 0.000001 0.000001 0.000001 0.000003 0.000001 -0.000001 -0.000003 -0.000001 -0.000001 0.000003 0.000001 -0.000001 0.000000 -0.000002 0.000003 -0.000001 -0.000002 0.000003 0.000000 -0.000002 0.000003 -0.000000 -0.000002 0.000004 0.000001 0.000003 -0.000001 0.000001 0.000003 -0.000001 0.000001 0.000003 -0.000001 0.000001 0.000003 -0.000001 0.000001 0.000003 -0.000001 0.000001 0.000003 -0.000001 0.000001 0.000003 -0.000001 -0.000000 -0.000000 -0.000000 0.000000 0.000000 -0.000001 
0.975882 56.585922 -3.706079 0.446928 -175.251972 -8.461599 0.000000 0.000000 -0.000001 -90.679306 -24.186735 14.495231 124.580984 1.083736 2.293422 -27.754725 5.606614 -17.498801 0.000000 -0.000002 -0.000000 -0.000001 0.000003 0.000002 -59.104646 17.603240 -29.376005 109.649904 5.998228 -0.095203 -29.010337 -10.352738 30.727973 -0.000000 -0.000001 -0.000000 -0.000004 0.000001 -0.000001 4.063872 3.107721 -2.650230 8.234950 6.762118 -4.728768 8.234946 6.762117 -4.728762 -0.114377 5.684470 1.215365 -0.114385 5.684481 1.215358 0.000001 -0.000000 0.000001 -0.114386 5.684479 1.215359 -0.114386 5.684468 1.215363 -0.000002 -0.000001 0.000001 0.000001 -0.000000 0.000001 1.018273 -15.384837 -11.671204 3.130074 -0.613956 -31.998415 40.157045 -33.422434 -1.934969 12.833467 10.604160 2.361206 -9.418921 -10.451636 8.419005 2.321125 6.714515 2.170915 0.000002 0.000003 -0.000001 -1.238312 -9.020195 -4.898270 -0.126836 0.207670 -21.714391 -0.000001 0.000001 -0.000001 1.310631 -1.007231 -8.016514 -0.178462 -0.773444 -14.430108 0.000000 0.000000 0.000001 -0.365096 2.948514 -4.454888 -0.505478 -2.597488 -30.199504 -0.000002 -0.000001 0.000001 0.035312 5.973108 0.766566 -0.699236 -5.770496 -39.699300 -0.000000 -0.000005 -0.000002 -0.000002 0.000000 -0.000000 -0.000002 0.000000 -0.000000 -0.000003 0.000000 -0.000000 0.000001 -0.000002 0.000002 0.000001 -0.000001 0.000002 0.000001 -0.000002 0.000002 0.000001 -0.000002 0.000002 3.169457 -18.205178 12.731742 12.862359 -13.921444 59.407674 29.931043 40.882350 -3.744449 19.093898 -1.984753 12.297559 -7.852785 4.769970 -9.664448 -0.642369 -0.093880 -1.289326 -0.000000 -0.000001 0.000001 -1.233017 0.595993 8.695210 0.120527 -1.119638 16.859796 -0.000001 -0.000001 0.000000 -1.142356 -1.774139 0.545302 -0.357881 1.142263 22.116004 -0.000003 0.000000 0.000001 1.909924 -0.146226 -2.803252 -0.619906 3.110111 28.344752 -0.000005 -0.000001 -0.000002 4.769418 -2.279018 -7.778132 -1.320411 7.677272 37.620190 -0.000001 0.000001 0.000002 0.000004 0.000001 0.000002 0.000001 0.000000 0.000002 0.000004 0.000001 0.000002 -0.000002 -0.000004 0.000004 -0.000002 -0.000004 0.000004 -0.000002 -0.000004 0.000004 -0.000002 -0.000004 0.000006 0.000002 -0.000000 0.000002 0.000002 -0.000000 0.000002 0.000002 -0.000000 0.000002 0.000002 -0.000000 0.000002 0.000002 -0.000000 0.000002 0.000002 -0.000000 0.000002 0.000002 -0.000000 0.000002 -0.000000 0.000001 0.000001 0.000000 0.000000 -0.000001 
0.968710 56.585884 -3.713725 0.429636 -175.242491 -8.462539 -0.000000 -0.000001 0.000001 -90.698396 -24.169178 14.488015 124.585861 1.088829 2.293656 -27.766491 5.601596 -17.484926 -0.000000 0.000002 -0.000000 -0.000004 0.000001 0.000002 -59.097064 17.588268 -29.392773 109.652089 5.994643 -0.095293 -29.038020 -10.354865 30.715180 0.000001 0.000001 0.000000 -0.000002 0.000000 -0.000000 4.060023 3.106209 -2.648173 8.227048 6.760018 -4.723991 8.227051 6.760016 -4.723981 -0.110907 5.686807 1.209660 -0.110925 5.686816 1.209669 0.000002 0.000002 -0.000003 -0.110912 5.686818 1.209659 -0.110904 5.686793 1.209664 -0.000002 0.000001 -0.000000 0.000002 0.000002 -0.000003 1.010124 -15.419010 -11.688372 3.153017 -0.589274 -31.984663 40.162629 -33.418067 -1.949314 12.827810 10.613316 2.381290 -9.417391 -10.452402 8.413808 2.321124 6.714512 2.170909 -0.000001 -0.000002 0.000000 -1.237242 -9.013927 -4.828708 -0.126837 0.207670 -21.714394 0.000002 0.000000 -0.000001 1.311333 -1.002226 -7.954880 -0.178462 -0.773444 -14.430110 0.000001 -0.000001 0.000001 -0.360604 2.951164 -4.408625 -0.505466 -2.597488 -30.199494 0.000002 -0.000004 0.000002 0.043678 5.977972 0.821849 -0.699236 -5.770496 -39.699296 0.000002 -0.000005 -0.000003 -0.000002 0.000000 0.000000 -0.000002 0.000000 0.000000 -0.000003 0.000000 0.000000 0.000001 0.000000 0.000002 0.000000 0.000001 0.000002 0.000001 0.000000 0.000002 0.000001 0.000001 0.000002 3.165846 -18.194352 12.713011 12.873441 -13.941522 59.432666 29.941470 40.850948 -3.760522 19.119781 -2.010044 12.308809 -7.852793 4.769960 -9.664425 -0.642368 -0.093880 -1.289326 -0.000000 -0.000002 -0.000002 -1.233015 0.595984 8.695237 0.120523 -1.119636 16.859793 -0.000001 0.000001 0.000004 -1.142358 -1.774142 0.545315 -0.357885 1.142267 22.116001 0.000001 0.000003 -0.000001 1.909921 -0.146227 -2.803231 -0.619907 3.110115 28.344752 -0.000004 0.000001 -0.000001 4.769411 -2.279031 -7.778107 -1.320415 7.677274 37.620190 -0.000004 0.000002 0.000000 0.000000 -0.000000 -0.000002 0.000000 -0.000001 -0.000002 0.000000 -0.000000 -0.000003 0.000001 0.000002 0.000001 -0.000000 0.000002 0.000001 0.000001 0.000002 0.000001 -0.000000 0.000002 0.000002 -0.000000 0.000001 0.000001 -0.000000 0.000001 0.000001 -0.000000 0.000001 0.000001 -0.000000 0.000001 0.000001 -0.000000 0.000001 0.000001 -0.000000 0.000001 0.000001 -0.000000 0.000001 0.000001 0.000000 0.000000 -0.000000 -0.000000 -0.000001 0.000001 
